<?xml version="1.0" encoding="UTF-8"?>
<svg width="79px" height="80px" viewBox="0 0 79 80" version="1.1" xmlns="http://www.w3.org/2000/svg" xmlns:xlink="http://www.w3.org/1999/xlink">
    <!-- Generator: Sketch 43 (38999) - http://www.bohemiancoding.com/sketch -->
    <title>Group 24</title>
    <desc>Created with Sketch.</desc>
    <defs></defs>
    <g id="WEB" stroke="none" stroke-width="1" fill="none" fill-rule="evenodd">
        <g id="Front-page-Copy-2" transform="translate(-1000.000000, -979.000000)">
            <g id="CONTENT" transform="translate(0.000000, 100.000000)">
                <g id="Секция-продукция" transform="translate(104.000000, 752.706693)">
                    <g id="Group-14" transform="translate(250.000000, 126.454724)">
                        <g id="Аксесуары" transform="translate(616.000000, 0.000000)">
                            <g id="Group-25">
                                <g id="Group-37" transform="translate(30.000000, 0.000000)">
                                    <g id="Group-36">
                                        <g id="Group-24">
                                            <ellipse id="Oval-7" fill="#31343F" cx="39.5" cy="39.6425525" rx="38.5" ry="38.6389436"></ellipse>
                                            <path d="M39.5,79.285105 C17.6847524,79.285105 0,61.5365297 0,39.6425525 C0,17.7485753 17.6847524,0 39.5,0 C61.3152476,0 79,17.7485753 79,39.6425525 C79,61.5365297 61.3152476,79.285105 39.5,79.285105 Z M39.5,77.4460175 C60.3032,77.4460175 77.1675258,60.5208297 77.1675258,39.6425525 C77.1675258,18.7642753 60.3032,1.83908749 39.5,1.83908749 C18.6968,1.83908749 1.83247423,18.7642753 1.83247423,39.6425525 C1.83247423,60.5208297 18.6968,77.4460175 39.5,77.4460175 Z" id="Oval-5" fill="#FFFFFF" fill-rule="nonzero"></path>
                                            <path d="M39.8054124,73.1965226 C21.396929,73.1965226 6.47390464,58.2196422 6.47390464,39.744724 C6.47390464,21.2698058 21.396929,6.29292541 39.8054124,6.29292541 C58.2138958,6.29292541 73.1369201,21.2698058 73.1369201,39.744724 C73.1369201,58.2196422 58.2138958,73.1965226 39.8054124,73.1965226 Z M39.8054124,71.6446351 C57.359894,71.6446351 71.590613,57.3625584 71.590613,39.744724 C71.590613,22.1268896 57.359894,7.84481298 39.8054124,7.84481298 C22.2509308,7.84481298 8.0202117,22.1268896 8.0202117,39.744724 C8.0202117,57.3625584 22.2509308,71.6446351 39.8054124,71.6446351 Z" id="Oval-5-Copy" fill="#FFFFFF" fill-rule="nonzero"></path>
                                            <path d="M35.4278351,59.43002 L35.4278351,60.4521006 C35.4278351,60.6773636 35.6102164,60.860604 35.8337643,60.860604 L43.9806687,60.860604 C44.2036463,60.860604 44.3865979,60.6770158 44.3865979,60.4521006 L44.3865979,59.43002 C44.3865979,59.2047571 44.2042166,59.0215166 43.9806687,59.0215166 L35.8337643,59.0215166 C35.6107867,59.0215166 35.4278351,59.2051048 35.4278351,59.43002 Z M34.2061856,59.43002 C34.2061856,58.5272765 34.9367809,57.7954582 35.8337643,57.7954582 L43.9806687,57.7954582 C44.8795556,57.7954582 45.6082474,58.5282667 45.6082474,59.43002 L45.6082474,60.4521006 C45.6082474,61.3548441 44.8776521,62.0866624 43.9806687,62.0866624 L35.8337643,62.0866624 C34.9348774,62.0866624 34.2061856,61.3538539 34.2061856,60.4521006 L34.2061856,59.43002 Z" id="Rectangle-19" fill="#FFFFFF" fill-rule="nonzero"></path>
                                            <rect id="Rectangle-20" fill="#FFFFFF" x="35" y="58.2093176" width="10" height="3.01082677"></rect>
                                        </g>
                                    </g>
                                </g>
                            </g>
                        </g>
                    </g>
                </g>
            </g>
        </g>
    </g>
</svg>