<?xml version="1.0" encoding="UTF-8"?>
<svg width="21px" height="20px" viewBox="0 0 21 20" version="1.1" xmlns="http://www.w3.org/2000/svg" xmlns:xlink="http://www.w3.org/1999/xlink">
    <!-- Generator: Sketch 43 (38999) - http://www.bohemiancoding.com/sketch -->
    <title>Group 4</title>
    <desc>Created with Sketch.</desc>
    <defs></defs>
    <g id="Symbols" stroke="none" stroke-width="1" fill="none" fill-rule="evenodd">
        <g id="HEADER" transform="translate(-1370.000000, -40.000000)" fill-rule="nonzero" fill="#31343E">
            <g id="Group-4" transform="translate(1370.000000, 40.000000)">
                <path d="M9.56435644,0.414920214 C9.56435644,0.185766107 9.74887227,0 9.98011797,0 L11.2278028,0 C11.4574216,0 11.6435644,0.187050086 11.6435644,0.414920214 L11.6435644,5.83507979 C11.6435644,6.06423389 11.4590485,6.25 11.2278028,6.25 L9.98011797,6.25 C9.75049921,6.25 9.56435644,6.06294991 9.56435644,5.83507979 L9.56435644,0.414920214 Z" id="Rectangle-11"></path>
                <path d="M0,7.49886697 C0,7.26937408 0.187960809,7.08333333 0.414762404,7.08333333 L20.5852376,7.08333333 C20.8143045,7.08333333 21,7.27132161 21,7.49886697 L21,11.0427997 C21,11.2722926 20.8120392,11.4583333 20.5852376,11.4583333 L0.414762404,11.4583333 C0.185695454,11.4583333 0,11.2703451 0,11.0427997 L0,7.49886697 Z" id="Rectangle-2"></path>
                <path d="M3.83534488,19.5467209 C3.86364603,19.6770661 4.00520942,19.7916667 4.13727377,19.7916667 L16.965339,19.7916667 C17.0958173,19.7916667 17.2364442,19.6772103 17.2632505,19.5484624 L18.7307911,12.5 L2.30532862,12.5 L3.83534488,19.5467209 Z M5.30532862,18.073379 C5.30532862,17.8560397 5.44678414,17.6798513 5.61600489,17.6798513 L15.5667148,17.6798513 C15.7382965,17.6798513 15.877391,17.8545244 15.877391,18.073379 C15.877391,18.2907184 15.7359355,18.4669068 15.5667148,18.4669068 L5.61600489,18.4669068 C5.44442313,18.4669068 5.30532862,18.2922337 5.30532862,18.073379 Z M5.30532862,16.4453927 C5.30532862,16.2280533 5.44678414,16.051865 5.61600489,16.051865 L15.5667148,16.051865 C15.7382965,16.051865 15.877391,16.2265381 15.877391,16.4453927 C15.877391,16.6627321 15.7359355,16.8389205 15.5667148,16.8389205 L5.61600489,16.8389205 C5.44442313,16.8389205 5.30532862,16.6642473 5.30532862,16.4453927 Z M5.30532862,14.8174064 C5.30532862,14.600067 5.44678414,14.4238786 5.61600489,14.4238786 L15.5667148,14.4238786 C15.7382965,14.4238786 15.877391,14.5985518 15.877391,14.8174064 C15.877391,15.0347458 15.7359355,15.2109341 15.5667148,15.2109341 L5.61600489,15.2109341 C5.44442313,15.2109341 5.30532862,15.036261 5.30532862,14.8174064 Z" id="Combined-Shape"></path>
            </g>
        </g>
    </g>
</svg>