<?xml version="1.0" encoding="UTF-8"?>
<svg width="69px" height="69px" viewBox="0 0 69 69" version="1.1" xmlns="http://www.w3.org/2000/svg" xmlns:xlink="http://www.w3.org/1999/xlink">
    <!-- Generator: Sketch 43 (38999) - http://www.bohemiancoding.com/sketch -->
    <title>Group 34</title>
    <desc>Created with Sketch.</desc>
    <defs></defs>
    <g id="WEB" stroke="none" stroke-width="1" fill="none" fill-rule="evenodd">
        <g id="Front-page-Copy-2" transform="translate(-681.000000, -982.000000)" fill="#31343F">
            <g id="CONTENT" transform="translate(0.000000, 100.000000)">
                <g id="Секция-продукция" transform="translate(104.000000, 752.706693)">
                    <g id="Group-14" transform="translate(250.000000, 126.454724)">
                        <g id="cofe" transform="translate(327.000000, 3.010827)">
                            <g id="Group-34">
                                <path d="M6.80158078,2.06029191 C6.92690387,2.21681661 7.05082952,2.39013008 7.17250353,2.58184021 C8.23373713,4.25392483 9.18028869,8.76918356 9.85403195,10.7910189 C10.5277752,12.8128543 11.6152085,14.3882286 11.9283285,14.844991 C13.6325701,17.3310458 15.3534271,18.2499414 16.2686887,19.9712981 C17.5188485,22.3225068 17.624544,24.2441429 19.243282,28.9570678 C19.8943077,30.8525168 21.324115,32.6847845 22.713829,34.7036833 C22.916687,34.998384 23.0893721,35.2610916 23.2363708,35.4948668 C23.1266543,35.5455664 23.0158637,35.5946701 22.9040062,35.6421508 C15.5068479,38.7820582 6.2450672,33.635129 2.21723998,24.1461627 C-1.52219687,15.3366016 0.564315066,5.88166478 6.80158078,2.06029191 Z M9.37146463,0.891692011 C16.573276,-1.36746347 25.1660035,3.73210349 29.0047198,12.7755522 C32.5648297,21.1626456 30.8443663,30.1347001 25.2888926,34.2734797 C24.4359048,33.403374 23.3241244,32.1309116 22.4614573,30.6607684 C21.0119694,28.1905747 20.7239933,24.6498593 19.9488502,22.2425174 C19.1737071,19.8351756 18.2898552,18.1471986 17.7880173,17.3451528 C15.9274937,14.3716323 13.6721491,12.037014 13.005856,10.7838989 C11.5552207,8.05565071 10.1902192,3.74043289 9.37146463,0.891692011 Z" id="Combined-Shape"></path>
                                <path d="M40.6202209,23.0427653 C40.76368,23.2219413 40.9055395,23.4203357 41.0448214,23.639789 C42.2596306,25.5538479 43.3431615,30.7225285 44.114405,33.0369521 C44.8856484,35.3513756 46.1304487,37.1547289 46.4888816,37.6775913 C48.4397511,40.5234134 50.4096405,41.5752862 51.4573533,43.5457476 C52.888429,46.2372094 53.0094201,48.4369334 54.8624124,53.8318853 C55.6076508,56.0016326 57.2443714,58.0990553 58.8351966,60.4101174 C59.067411,60.7474655 59.2650862,61.0481905 59.4333576,61.3157963 C59.3077636,61.3738329 59.1809401,61.4300426 59.0528952,61.4843944 C50.5852634,65.0786908 39.983172,59.1869282 35.3724611,48.3247742 C31.0918749,38.2403449 33.4803346,27.4171449 40.6202209,23.0427653 Z M43.5620033,21.7050525 C51.8060188,19.1189652 61.6422355,24.9565117 66.0364683,35.3086754 C70.1117765,44.9094999 68.1423378,55.1799376 61.7829084,59.9176572 C60.8064811,58.9216349 59.5338104,57.4650292 58.5463032,55.7821355 C56.8870539,52.9544698 56.5574036,48.9013627 55.6700863,46.1456445 C54.7827691,43.3899262 53.7710112,41.4576751 53.1965503,40.5395619 C51.0667826,37.1357308 48.4850577,34.4632603 47.7223425,33.0288016 C46.0617798,29.9057374 44.4992433,24.9660465 43.5620033,21.7050525 Z" id="Combined-Shape-Copy" transform="translate(50.704465, 41.816725) rotate(49.000000) translate(-50.704465, -41.816725) "></path>
                                <path d="M9.11293898,44.1406014 C9.20536003,44.2560324 9.2967505,44.3838446 9.38648048,44.5252235 C10.1691001,45.7583227 10.8671461,49.0881552 11.3640062,50.5791823 C11.8608664,52.0702094 12.6628073,53.2319883 12.8937215,53.5688333 C14.1505352,55.4022046 15.4196021,56.0798554 16.0945729,57.3492908 C17.0165185,59.0832183 17.0944649,60.5003522 18.288223,63.9759561 C18.7683298,65.373778 19.8227586,66.725006 20.84762,68.2138676 C20.9972201,68.4311982 21.1245689,68.6249351 21.2329749,68.7973354 C21.1520631,68.8347245 21.0703592,68.8709366 20.9878685,68.9059518 C15.5327442,71.2215148 8.70253128,67.4258492 5.73216108,60.4280956 C2.97446788,53.9313775 4.51319149,46.9587193 9.11293898,44.1406014 Z M11.0081311,43.2788032 C16.3191945,41.6127615 22.656006,45.3734992 25.486914,52.0427005 C28.1123604,58.2278645 26.8435837,64.8444153 22.746632,67.8966087 C22.1175858,67.2549386 21.2976898,66.3165457 20.6615055,65.2323708 C19.592563,63.4106964 19.3801915,60.7995527 18.8085528,59.0242292 C18.2369141,57.2489056 17.5851067,56.0040865 17.2150203,55.412608 C15.8429545,53.2197491 14.1797232,51.4980565 13.6883572,50.5739315 C12.6185686,48.5619517 11.6119316,45.3796418 11.0081311,43.2788032 Z" id="Combined-Shape-Copy-2" transform="translate(15.609538, 56.235398) rotate(-23.000000) translate(-15.609538, -56.235398) "></path>
                            </g>
                        </g>
                    </g>
                </g>
            </g>
        </g>
    </g>
</svg>