<?xml version="1.0" encoding="UTF-8"?>
<svg width="37px" height="57px" viewBox="0 0 37 57" version="1.1" xmlns="http://www.w3.org/2000/svg" xmlns:xlink="http://www.w3.org/1999/xlink">
    <!-- Generator: Sketch 43 (38999) - http://www.bohemiancoding.com/sketch -->
    <title>Group 10</title>
    <desc>Created with Sketch.</desc>
    <defs></defs>
    <g id="Symbols" stroke="none" stroke-width="1" fill="none" fill-rule="evenodd">
        <g id="HEADER" transform="translate(-64.000000, -23.000000)" fill="#31343E">
            <g transform="translate(0.000000, 1.000000)" id="LOGO">
                <g transform="translate(50.000000, 22.000000)">
                    <g id="Group-3">
                        <g id="Group-10" transform="translate(1.733492, 0.000000)">
                            <g id="Group-9-Copy-4" transform="translate(13.012953, 0.000000)">
                                <path d="M0.15980103,6.90790111 C0.15980103,6.14299102 0.869567125,4.11898848 4.19499328,2.6264894 C8.99218566,0.473440484 14.0111323,0.00905307192 18.5501765,0.00905307192 C23.0892208,0.00905307192 28.237804,0.905692788 31.8514637,2.71552626 C35.4375341,4.51154211 35.5699919,6.53224128 35.5699919,6.53224128 C35.5699919,6.53224128 35.5591865,6.52079814 35.5699919,8.1338496 C35.5807973,9.74690106 35.3816043,12.2125391 35.0412139,13.1637929 C34.4273623,14.8792607 32.9306541,16.1246347 32.9306541,16.756487 C32.9306541,18.7965075 29.1751289,52.3255503 29.1751289,52.3255503 C29.1751289,52.3255503 27.5859779,56.9489511 17.9104806,56.9489511 C8.23498328,56.9489511 6.43017698,52.3255503 6.43017698,52.3255503 C6.43017698,52.3255503 2.62687989,18.6425088 2.62687989,16.4953884 C2.62687989,15.2645107 0.857503669,14.6101893 0.438688741,12.2428806 C0.0198738134,9.87557204 0.15980103,7.6728112 0.15980103,6.90790111 Z M17.37788,13.4117558 C26.2029026,13.4117558 33.9229587,11.1383262 33.9229587,7.32662064 C33.9229587,3.51491508 26.2029026,1.33217576 17.37788,1.33217576 C8.55285735,1.33217576 1.75179448,4.40607566 1.75179448,7.661407 C1.75179448,10.9167383 8.55285735,13.4117558 17.37788,13.4117558 Z" id="Combined-Shape"></path>
                            </g>
                        </g>
                    </g>
                </g>
            </g>
        </g>
    </g>
</svg>