<?xml version="1.0" encoding="UTF-8"?>
<svg width="78px" height="42px" viewBox="0 0 78 42" version="1.1" xmlns="http://www.w3.org/2000/svg" xmlns:xlink="http://www.w3.org/1999/xlink">
    <!-- Generator: Sketch 43 (38999) - http://www.bohemiancoding.com/sketch -->
    <title>Group 4</title>
    <desc>Created with Sketch.</desc>
    <defs></defs>
    <g id="Symbols" stroke="none" stroke-width="1" fill="none" fill-rule="evenodd">
        <g id="HEADER" transform="translate(-133.000000, -32.000000)" fill="#31343E">
            <g transform="translate(0.000000, 1.000000)" id="LOGO">
                <g transform="translate(50.000000, 22.000000)">
                    <g id="Group-4" transform="translate(83.213483, 9.952381)">
                        <path d="M9.93139916,21.7308485 C6.86811187,21.7308485 4.44708489,20.7629403 2.6682456,18.8270948 C0.889406306,16.8912493 0,14.2349598 0,10.8581467 C0,7.49103698 0.891829756,4.83959918 2.67551602,2.9037537 C4.45920229,0.96790822 6.87780582,0 9.93139916,0 C11.5987581,0 13.1134146,0.329913579 14.4754141,0.989750634 C15.8374137,1.64958769 16.9303899,2.58110838 17.7543754,3.78434066 C18.5783609,4.98757294 19.0436633,6.36059562 19.1502968,7.90344992 L14.8752875,7.90344992 C14.6717146,6.61288626 14.1167444,5.57948049 13.2103604,4.80320161 C12.3039763,4.02692272 11.2110002,3.6387891 9.93139916,3.6387891 C8.2737342,3.6387891 6.95053027,4.28891291 5.96174766,5.58918005 C4.97296506,6.88944719 4.47858117,8.64090016 4.47858117,10.8435915 C4.47858117,13.0850968 4.96811816,14.8535306 5.94720681,16.148946 C6.92629547,17.4443614 8.25919321,18.0920594 9.94594,18.0920594 C11.2449289,18.0920594 12.3354816,17.7330358 13.2176308,17.0149778 C14.09978,16.2969198 14.6571736,15.3168824 14.8898283,14.0748362 L19.1648376,14.0748362 C18.9224889,16.4133764 17.9676495,18.2739919 16.3002906,19.6567387 C14.6329317,21.0394855 12.5099891,21.7308485 9.93139916,21.7308485 Z M26.2607714,0.36387891 L26.2607714,13.5071851 C26.2607714,14.8753767 26.6461,15.959725 27.4167688,16.7602626 C28.1874376,17.5608002 29.27072,17.961063 30.6666483,17.961063 C32.0528828,17.961063 33.1313182,17.5608002 33.901987,16.7602626 C34.6726558,15.959725 35.0579844,14.8753767 35.0579844,13.5071851 L35.0579844,0.36387891 L39.4493205,0.36387891 L39.4493205,13.9438398 C39.4493205,16.2726765 38.6520053,18.1526987 37.057351,19.5839629 C35.4626967,21.0152271 33.3324838,21.7308485 30.6666483,21.7308485 C27.9911189,21.7308485 25.8560591,21.0152271 24.2614048,19.5839629 C22.6667505,18.1526987 21.8694353,16.2726765 21.8694353,13.9438398 L21.8694353,0.36387891 L26.2607714,0.36387891 Z M42.939124,0.36387891 L51.6927145,0.36387891 C53.8544647,0.36387891 55.6066194,1.02370607 56.949231,2.34338018 C58.2918427,3.66305429 58.9631385,5.39995225 58.9631385,7.55412616 C58.9631385,9.69859659 58.2700316,11.4330687 56.8837972,12.7575946 C55.4975628,14.0821204 53.6945157,14.7443734 51.4746018,14.7443734 L47.3304601,14.7443734 L47.3304601,21.3669696 L42.939124,21.3669696 L42.939124,0.36387891 Z M47.3304601,3.84256128 L47.3304601,11.3093565 L50.5149058,11.3093565 C51.7751189,11.3093565 52.7541929,10.9842946 53.4521571,10.334161 C54.1501213,9.68402746 54.4990981,8.76221011 54.4990981,7.56868132 C54.4990981,6.37515253 54.1525447,5.45576101 53.4594275,4.81047918 C52.7663103,4.16519736 51.7896598,3.84256128 50.5294467,3.84256128 L47.3304601,3.84256128 Z M60.7662036,15.3848003 L64.9975904,15.3848003 C65.0945298,16.2387071 65.5477151,16.9300701 66.3571597,17.4589101 C67.1666042,17.9877501 68.1577955,18.2521661 69.3307631,18.2521661 C70.4940367,18.2521661 71.4416058,18.0023051 72.1734988,17.5025755 C72.9053918,17.002846 73.2713329,16.3648514 73.2713329,15.5885725 C73.2713329,14.9093285 72.9999064,14.3610897 72.4570454,13.9438398 C71.9141843,13.5265899 71.0078139,13.1772697 69.7379068,12.8958686 L67.0042274,12.2991071 C63.1557304,11.4743108 61.2315107,9.5190877 61.2315107,6.43337912 C61.2315107,4.51208887 61.9803569,2.95955438 63.4780718,1.77572908 C64.9757866,0.591903774 66.9024297,0 69.2580588,0 C71.6815456,0 73.615459,0.574922928 75.0598572,1.72478603 C76.5042553,2.87464913 77.2458311,4.40535111 77.2846069,6.31693787 L73.1695469,6.31693787 C73.1016893,5.43392063 72.7115138,4.73770595 71.9990087,4.22827293 C71.2865036,3.71883991 70.3777096,3.46412722 69.2725997,3.46412722 C68.1868776,3.46412722 67.312012,3.70185906 66.6479766,4.17732988 C65.9839412,4.6528007 65.6519285,5.27866617 65.6519285,6.05494505 C65.6519285,6.69537514 65.9209315,7.21450386 66.4589456,7.61234679 C66.9969597,8.01018972 67.8718253,8.34980664 69.0835686,8.63120773 L71.628217,9.16974852 C73.7318036,9.61610888 75.2634242,10.3123236 76.223125,11.2584135 C77.1828258,12.2045034 77.6626689,13.4780668 77.6626689,15.079142 C77.6626689,17.1168741 76.8968586,18.7349061 75.365215,19.9332867 C73.8335713,21.1316672 71.7639447,21.7308485 69.1562729,21.7308485 C66.6261527,21.7308485 64.6122654,21.1656289 63.1145506,20.0351728 C61.6168357,18.9047166 60.8340612,17.354608 60.7662036,15.3848003 Z" id="CUPS"></path>
                        <path d="M5.29979509,40.7618409 L1.80898876,40.7618409 L1.80898876,30.0792345 L5.26281621,30.0792345 C7.23009266,30.0792345 8.41341684,31.0638406 8.41341684,32.7221246 C8.41341684,33.8992102 7.6516519,34.8690102 6.57926436,35.0540865 L6.57926436,35.1651323 C8.01404493,35.3057904 8.95330849,36.3496209 8.95330849,37.7784103 C8.95330849,39.6513829 7.59248569,40.7618409 5.29979509,40.7618409 Z M3.10324958,31.2044986 L3.10324958,34.6913369 L4.76729921,34.6913369 C6.28343331,34.6913369 7.09696869,34.0768835 7.09696869,32.9516193 C7.09696869,31.8337582 6.32780797,31.2044986 4.96698517,31.2044986 L3.10324958,31.2044986 Z M3.10324958,39.6291737 L5.0187556,39.6291737 C6.71238833,39.6291737 7.59988146,38.9628989 7.59988146,37.6895736 C7.59988146,36.4310545 6.70499255,35.7795858 4.97438094,35.7795858 L3.10324958,35.7795858 L3.10324958,39.6291737 Z M30.699508,39.5625462 L25.7073591,39.5625462 L25.7073591,35.8906316 L30.4258643,35.8906316 L30.4258643,34.7431583 L25.7073591,34.7431583 L25.7073591,31.2785292 L30.699508,31.2785292 L30.699508,30.0792345 L24.3983067,30.0792345 L24.3983067,40.7618409 L30.699508,40.7618409 L30.699508,39.5625462 Z M46.0039865,37.9190683 C46.1149231,39.8142501 47.5570995,40.9839325 49.7610407,40.9839325 C51.9945651,40.9839325 53.4367415,39.7624287 53.4367415,37.8450378 C53.4367415,36.2385751 52.5640399,35.3354026 50.4932226,34.8245919 L49.5613548,34.5876942 C48.1709489,34.2397506 47.5792868,33.7067308 47.5792868,32.7813491 C47.5792868,31.6931002 48.4002179,31.0416314 49.7684365,31.0416314 C51.0257185,31.0416314 51.8392538,31.6931002 51.9723778,32.7961552 L53.2444513,32.7961552 C53.155702,31.0194223 51.7726918,29.8571429 49.7610407,29.8571429 C47.6310572,29.8571429 46.2628386,31.0342284 46.2628386,32.8553796 C46.2628386,34.4026178 47.1577275,35.3428056 49.1397955,35.8462133 L50.0568718,36.0757079 C51.4990481,36.4310545 52.1202933,36.9862835 52.1202933,37.9116653 C52.1202933,39.0591386 51.1884255,39.7994439 49.7684365,39.7994439 C48.3484475,39.7994439 47.4091839,39.0887508 47.27606,37.9190683 L46.0039865,37.9190683 Z M72.5870235,40.7618409 L72.5870235,31.2785292 L75.8115819,31.2785292 L75.8115819,30.0792345 L68.0608086,30.0792345 L68.0608086,31.2785292 L71.2853669,31.2785292 L71.2853669,40.7618409 L72.5870235,40.7618409 Z" id="BEST"></path>
                    </g>
                </g>
            </g>
        </g>
    </g>
</svg>