<?xml version="1.0" encoding="UTF-8"?>
<svg width="21px" height="21px" viewBox="0 0 21 21" version="1.1" xmlns="http://www.w3.org/2000/svg" xmlns:xlink="http://www.w3.org/1999/xlink">
    <!-- Generator: Sketch 43 (38999) - http://www.bohemiancoding.com/sketch -->
    <title></title>
    <desc>Created with Sketch.</desc>
    <defs></defs>
    <g id="Symbols" stroke="none" stroke-width="1" fill="none" fill-rule="evenodd">
        <g id="HEADER" transform="translate(-1281.000000, -41.000000)" fill="#31343E">
            <g transform="translate(0.000000, 1.000000)" id="header-icons">
                <g transform="translate(1281.000000, 40.000000)">
                    <path d="M16.5384615,8.88461538 C16.5384615,5.18318043 13.6151707,1.23076923 8.88461538,1.23076923 C4.15406005,1.23076923 1.23076923,5.07087749 1.23076923,8.88461538 C1.23076923,12.6983533 4.05542044,16.5384615 8.88461538,16.5384615 C13.7138103,16.5384615 16.5384615,12.5860503 16.5384615,8.88461538 Z M21,19.3846154 C21,20.2680288 20.2680288,21 19.3846154,21 C18.9555288,21 18.5390625,20.8233173 18.2487981,20.5204327 L13.9200721,16.2043269 C12.4435096,17.2265625 10.6766827,17.7692308 8.88461538,17.7692308 C3.97536058,17.7692308 0,13.7938702 0,8.88461538 C0,3.97536058 3.97536058,0 8.88461538,0 C13.7938702,0 17.7692308,3.97536058 17.7692308,8.88461538 C17.7692308,10.6766827 17.2265625,12.4435096 16.2043269,13.9200721 L20.5330529,18.2487981 C20.8233173,18.5390625 21,18.9555288 21,19.3846154 Z" id=""></path>
                </g>
            </g>
        </g>
    </g>
</svg>