<?xml version="1.0" encoding="UTF-8"?>
<svg width="20px" height="19px" viewBox="0 0 20 19" version="1.1" xmlns="http://www.w3.org/2000/svg" xmlns:xlink="http://www.w3.org/1999/xlink">
    <!-- Generator: Sketch 43 (38999) - http://www.bohemiancoding.com/sketch -->
    <title>person - material</title>
    <desc>Created with Sketch.</desc>
    <defs></defs>
    <g id="Symbols" stroke="none" stroke-width="1" fill="none" fill-rule="evenodd">
        <g id="HEADER" transform="translate(-1327.000000, -42.000000)" fill="#31343E">
            <g transform="translate(0.000000, 1.000000)" id="header-icons">
                <g transform="translate(1281.000000, 40.000000)">
                    <path d="M55.7514805,12.8892216 C56.9271351,12.8892216 58.2165433,13.0598785 59.6197439,13.4011976 C61.2125663,13.7994032 62.5019745,14.330336 63.4880074,14.994012 C64.663662,15.771461 65.2514805,16.6437077 65.2514805,17.6107784 L65.2514805,20 L46.2514805,20 L46.2514805,17.6107784 C46.2514805,16.6437077 46.8392989,15.771461 48.0149535,14.994012 C49.0009864,14.330336 50.2903947,13.7994032 51.883217,13.4011976 C53.2864176,13.0598785 54.5758259,12.8892216 55.7514805,12.8892216 Z M55.7514805,10.5 C54.8981828,10.5 54.1112645,10.2866788 53.390702,9.86002994 C52.6701395,9.4333811 52.0965425,8.85978404 51.6698936,8.13922156 C51.2432448,7.41865907 51.0299236,6.63174079 51.0299236,5.77844311 C51.0299236,4.92514543 51.2432448,4.12874621 51.6698936,3.38922156 C52.0965425,2.6496969 52.6701395,2.0666189 53.390702,1.63997006 C54.1112645,1.21332122 54.8981828,1 55.7514805,1 C56.6047782,1 57.3916964,1.21332122 58.1122589,1.63997006 C58.8328214,2.0666189 59.4064185,2.6496969 59.8330673,3.38922156 C60.2597161,4.12874621 60.4730374,4.92514543 60.4730374,5.77844311 C60.4730374,6.63174079 60.2597161,7.41865907 59.8330673,8.13922156 C59.4064185,8.85978404 58.8328214,9.4333811 58.1122589,9.86002994 C57.3916964,10.2866788 56.6047782,10.5 55.7514805,10.5 Z" id="person---material"></path>
                </g>
            </g>
        </g>
    </g>
</svg>